<?xml version="1.0" encoding="UTF-8"?>
<svg version="1.1" xmlns="http://www.w3.org/2000/svg" width="512" height="512">
<path d="M0 0 C4.78250787 2.82091677 8.46232087 6.21481155 12.29321289 10.16137695 C13.189562 11.07174461 13.189562 11.07174461 14.10401917 12.00050354 C15.39272235 13.31010841 16.6792151 14.62189143 17.96370125 15.93563271 C19.99664816 18.01279497 22.03758764 20.08177819 24.0811615 22.14848328 C29.88766181 28.02204044 35.68559705 33.90384974 41.46313477 39.8059082 C45.00393212 43.42185769 48.55908134 47.02314385 52.12396049 50.61534691 C53.47912748 51.98664561 54.82871371 53.36348241 56.17259407 54.74584389 C58.04696675 56.67298064 59.9389869 58.5809613 61.83618164 60.4855957 C62.38852478 61.06265259 62.94086792 61.63970947 63.50994873 62.23425293 C65.22386801 63.99902535 65.22386801 63.99902535 68 66 C70.73287369 66.038684 70.73287369 66.038684 73 65 C73.66225586 64.78190674 74.32451172 64.56381348 75.00683594 64.33911133 C75.65942383 64.0892749 76.31201172 63.83943848 76.984375 63.58203125 C112.54615777 50.34138449 151.52446533 45.10032763 189 53 C189.95132813 53.19867676 190.90265625 53.39735352 191.8828125 53.60205078 C229.78025802 61.77276941 265.28101306 80.47713335 293.26953125 107.38671875 C295.5796871 109.59772628 297.93248845 111.68898549 300.375 113.75 C303.61665356 116.55853074 306.40763584 119.59517742 309.17578125 122.8671875 C311.10007349 125.11700241 313.10835785 127.27025252 315.125 129.4375 C334.23572529 150.6933067 362.11567046 186.04103415 365.375 215.375 C364.77114203 221.2122937 362.68729457 225.39501249 358.4375 229.4375 C353.76883799 232.43023206 349.38154285 232.49846194 344 232 C338.26553534 230.014993 334.68669074 226.22377406 331.91552734 220.92724609 C330.83967934 218.55070764 329.81947502 216.1565075 328.8125 213.75 C317.2769686 187.27612558 300.95305085 163.82718451 281 143 C280.44860352 142.41605469 279.89720703 141.83210937 279.32910156 141.23046875 C249.02606774 109.26169348 206.63805379 85.66788143 161.89770508 83.87573242 C140.81628126 83.38924961 121.70910688 84.92855494 101.52734375 91.01171875 C98 92 98 92 95 92 C101.95706499 99.99930618 109.01765274 107.87833566 116.328125 115.55712891 C117.85488277 117.18093186 119.36142678 118.82398873 120.84667969 120.48583984 C129.95123465 131.12961488 129.95123465 131.12961488 142.53222656 136.0168457 C146.96005189 136.14395893 151.25270891 135.72795725 155.64100647 135.17922974 C173.0613718 133.85567906 191.88334695 143.9071022 204.72192383 154.82543945 C218.26360383 166.89590322 229.29298026 184.69966401 231 203 C230.86909247 204.92727232 230.68631082 206.85148264 230.46133423 208.77005005 C229.45959059 218.18243527 228.83902658 226.76363167 234.51239014 234.79437256 C239.03479283 240.2353581 244.11738738 245.08958062 249.30968428 249.88006353 C251.90172316 252.29950525 254.41722734 254.79626293 256.94229126 257.28518677 C261.71701263 261.96950634 266.55299606 266.58450468 271.41673243 271.17614377 C277.49182984 276.91742611 283.48452267 282.7426056 289.4765625 288.5703125 C291.57914754 290.61437451 293.6823273 292.65782126 295.7862854 294.70046997 C296.55033705 295.44227987 296.55033705 295.44227987 297.32982409 296.19907582 C300.83525524 299.59785919 304.36200389 302.9734507 307.89901733 306.33932495 C308.83288773 307.23059586 309.76675812 308.12186676 310.72892761 309.04014587 C312.4736655 310.70338845 314.2225122 312.36233566 315.97618103 314.01615906 C316.74461838 314.74977158 317.51305573 315.48338409 318.30477905 316.23922729 C318.97400076 316.87283613 319.64322247 317.50644497 320.33272362 318.15925407 C324.49095483 322.7501229 324.42897083 327.10224862 324.3125 333.0859375 C323.74397844 338.38740101 321.22134216 340.83972495 317.5 344.375 C312.44221514 346.72325726 307.48314207 346.97097307 302 346 C296.61792944 342.89274615 292.51095275 338.7822191 288.15869141 334.38574219 C287.39703674 333.62437958 286.63538208 332.86301697 285.85064697 332.07858276 C283.34617951 329.57272724 280.84886178 327.05987258 278.3515625 324.546875 C276.61179581 322.80337633 274.87158565 321.06032007 273.13095093 319.31768799 C268.55958729 314.73870252 263.99426277 310.15374182 259.43017578 305.56750488 C254.76828549 300.88512499 250.10070063 296.20842931 245.43359375 291.53125 C236.28348503 282.35971694 227.13955221 273.18205218 218 264 C214.67563779 265.10812074 214.07314668 265.85536627 211.9375 268.5 C198.53112657 284.17816474 180.2572104 294.52854952 159.45849609 296.20483398 C156.88513504 296.30217093 154.32511073 296.32932451 151.75 296.3125 C150.83395996 296.30686035 149.91791992 296.3012207 148.97412109 296.29541016 C127.37605223 295.91210231 108.8637912 287.55885835 93.25 272.8125 C76.09798038 254.86155079 70.30595752 233.85453317 70.69140625 209.48046875 C71.39667397 189.23840739 80.6566626 171.42266144 94.79296875 157.1875 C101.49287109 151 101.49287109 151 104 151 C99.18399304 145.3515844 94.14565339 140.00957999 88.87890625 134.78125 C88.13414536 134.03790405 87.38938446 133.29455811 86.62205505 132.52868652 C84.27123255 130.18340699 81.91693569 127.84165164 79.5625 125.5 C77.95614801 123.89867039 76.35002603 122.29711002 74.74414062 120.6953125 C70.83208015 116.79420527 66.91717048 112.8959758 63 109 C39.41787752 123.74048056 18.47001329 142.52983024 2 165 C1.57525391 165.56928223 1.15050781 166.13856445 0.71289062 166.72509766 C-11.18470361 182.68605331 -21.77093903 200.15604663 -29.125 218.6875 C-31.76930594 225.11360662 -34.67522449 228.83761225 -41 232 C-46.96308973 232.55769904 -51.92876868 232.50156448 -57 229 C-60.82880833 224.9584801 -62.83691906 221.38214656 -63.21875 215.8046875 C-62.97715851 211.60272121 -61.9031929 208.30858649 -60.25 204.5 C-59.94199463 203.7771582 -59.63398926 203.05431641 -59.31665039 202.30957031 C-46.80847362 173.67994388 -29.46008115 148.47129856 -9 125 C-8.56123535 124.49662109 -8.1224707 123.99324219 -7.67041016 123.47460938 C-3.0792023 118.2402551 1.56500562 113.2612949 6.90625 108.7890625 C8.42288688 107.49313024 9.8974483 106.14742411 11.34375 104.7734375 C19.26851574 97.25445796 27.98351605 91.13381381 37 85 C35.41334527 81.08191071 32.72177105 78.46564852 29.75585938 75.56054688 C29.22233353 75.02994156 28.68880768 74.49933624 28.13911438 73.95265198 C26.98292229 72.80405624 25.82442584 71.65777645 24.66389465 70.51356506 C22.82696893 68.70220246 20.99639546 66.88463332 19.1673584 65.06530762 C15.28379399 61.20458465 11.39246938 57.3517419 7.5 53.5 C2.98901356 49.03621268 -1.518733 44.56925478 -6.01811218 40.09376526 C-7.82106118 38.30377573 -9.62993209 36.51991991 -11.43908691 34.73620605 C-12.54497313 33.63758568 -13.65057908 32.53868309 -14.75585938 31.43945312 C-15.25981735 30.94582779 -15.76377533 30.45220245 -16.28300476 29.94361877 C-20.77738078 25.45061244 -22.29430325 22.46776417 -22.375 16.125 C-22.27363418 10.91733093 -21.69948398 7.89419367 -18 4 C-12.87322962 -0.87043186 -6.74482111 -1.1943954 0 0 Z M117.09375 181.6875 C106.59037954 192.76378157 103.48513673 205.44748012 103.73046875 220.15625 C104.24959351 233.37219464 110.94329136 243.40876807 120.3125 252.375 C131.46151462 261.75555023 144.81374021 264.161618 159 263 C172.22073245 260.23323554 183.00659097 252.99121203 191.0625 242.25 C192.18625445 239.55298932 191.94740258 238.70683771 191 236 C189.12408807 233.84467817 187.24225253 231.85323013 185.2109375 229.85449219 C184.60767639 229.24918671 184.00441528 228.64388123 183.38287354 228.02023315 C181.38742848 226.02178034 179.3814489 224.03427487 177.375 222.046875 C175.98818756 220.66311963 174.60196463 219.27877322 173.21630859 217.89385986 C170.31215235 214.99430631 167.40315301 212.09973464 164.49023438 209.20898438 C160.74716162 205.49424662 157.01287005 201.7708368 153.28170776 198.04413986 C150.42044688 195.18702482 147.55636526 192.33275281 144.69122314 189.47953033 C143.31277357 188.10679664 141.93480369 186.73358108 140.55731201 185.35988617 C138.63717398 183.44658336 136.71368887 181.53671617 134.7890625 179.62792969 C134.21448303 179.05446808 133.63990356 178.48100647 133.0479126 177.89016724 C126.83744061 171.74768262 123.10279457 176.36801792 117.09375 181.6875 Z " fill="#000000" transform="translate(105,83)"/>
</svg>
