<?xml version="1.0" encoding="UTF-8"?>
<svg version="1.1" xmlns="http://www.w3.org/2000/svg" width="1024" height="1024">
<path d="M0 0 C1.19074631 0.00607269 1.19074631 0.00607269 2.4055481 0.01226807 C3.6593779 0.00701111 3.6593779 0.00701111 4.9385376 0.00164795 C7.71017689 -0.00717701 10.48156232 -0.00131755 13.25320435 0.00543213 C15.17369638 0.0040857 17.09418809 0.00214535 19.01467896 -0.00036621 C23.0431136 -0.00331851 27.07145967 0.00098357 31.09988403 0.01031494 C36.27200878 0.02170953 41.44392597 0.01515062 46.61604309 0.00317001 C50.5827695 -0.00404573 54.54944644 -0.00176197 58.51617432 0.0034256 C60.42362492 0.00476289 62.33107997 0.00311163 64.23852539 -0.00153351 C66.90109206 -0.00659407 69.5633193 0.00110477 72.2258606 0.01226807 C73.01969147 0.0082196 73.81352234 0.00417114 74.63140869 0 C80.08717606 0.04252885 80.08717606 0.04252885 82.31570435 2.27105713 C85.70875476 2.56273393 89.05954827 2.68639375 92.46218872 2.74957275 C97.96837689 2.95649642 97.96837689 2.95649642 99.97195435 4.77105713 C100.41539185 5.26605713 100.85882935 5.76105713 101.31570435 6.27105713 C103.98329761 6.77516946 103.98329761 6.77516946 106.87820435 6.83355713 C112.10737101 7.0627238 112.10737101 7.0627238 114.31570435 9.27105713 C116.22315251 9.65554765 116.22315251 9.65554765 118.31570435 9.77105713 C122.09348212 10.04883491 122.09348212 10.04883491 124.31570435 12.27105713 C126.22315251 12.65554765 126.22315251 12.65554765 128.31570435 12.77105713 C132.09348212 13.04883491 132.09348212 13.04883491 134.31570435 15.27105713 C135.47070435 15.43605713 136.62570435 15.60105713 137.81570435 15.77105713 C141.31570435 16.27105713 141.31570435 16.27105713 143.31570435 18.27105713 C144.55320435 18.76605713 144.55320435 18.76605713 145.81570435 19.27105713 C148.31570435 20.27105713 148.31570435 20.27105713 150.31570435 22.27105713 C151.97267813 22.96146287 153.64128045 23.62412062 155.31570435 24.27105713 C157.31570435 25.27105713 159.31570435 26.27105713 161.31570435 27.27105713 C162.47070435 27.76605713 163.62570435 28.26105713 164.81570435 28.77105713 C168.05521316 30.15941805 171.17780783 31.66872699 174.31570435 33.27105713 C175.32632935 33.72480713 176.33695435 34.17855713 177.37820435 34.64605713 C180.63028287 36.44507929 182.69999889 38.65535168 185.31570435 41.27105713 C186.97185759 41.96342889 188.64004454 42.62732858 190.31570435 43.27105713 C196.1087926 46.31488316 200.23821762 49.14131576 204.31570435 54.27105713 C205.7275564 55.10760727 207.16929611 55.89457252 208.62820435 56.64605713 C214.78036552 59.87342037 218.85396197 64.49669665 223.25320435 69.77105713 C225.3946988 72.32721762 227.64518679 74.49253936 230.19070435 76.64605713 C233.97311974 79.85210446 237.13624838 83.39716579 240.3742981 87.14215088 C242.13745083 89.07558798 243.92482037 90.73461429 245.94070435 92.39605713 C250.20924917 95.92224633 254.31594286 99.74224866 256.37820435 104.95855713 C257.64375565 108.08025034 259.65973799 109.26288744 262.31570435 111.27105713 C264.767798 114.08642391 265.99372839 116.80087026 267.31570435 120.27105713 C269.40072439 124.93753057 272.01138187 128.38847822 275.31570435 132.27105713 C276.93048432 134.72313042 278.19999916 136.97022365 279.25320435 139.70855713 C280.27524602 142.43071257 280.27524602 142.43071257 282.31570435 145.14605713 C284.46657417 148.50679122 285.28842582 151.43588396 286.31570435 155.27105713 C287.75622984 158.45221759 288.84826917 160.80362195 291.31570435 163.27105713 C292.00323735 164.92922497 292.67131718 166.59565049 293.31570435 168.27105713 C293.64570435 168.60105713 293.97570435 168.93105713 294.31570435 169.27105713 C294.46007935 170.40543213 294.60445435 171.53980713 294.75320435 172.70855713 C294.96417985 176.3116471 294.96417985 176.3116471 297.31570435 178.27105713 C297.69037817 180.31473252 297.81966496 182.32492147 297.97195435 184.39605713 C298.176058 186.51007999 298.176058 186.51007999 300.31570435 188.27105713 C300.69037817 190.31473252 300.81966496 192.32492147 300.97195435 194.39605713 C301.176058 196.51007999 301.176058 196.51007999 303.31570435 198.27105713 C303.53852471 200.27644042 303.75757901 202.28405539 303.8742981 204.29840088 C304.14140834 206.37435903 304.14140834 206.37435903 305.81570435 207.64605713 C308.03129298 210.04627815 307.75745518 212.12786155 307.87820435 215.33355713 C307.83620376 219.82617608 307.83620376 219.82617608 310.31570435 223.27105713 C310.69918061 226.0948369 310.82221556 228.89477023 310.97195435 231.73980713 C311.07809109 234.4371251 311.07809109 234.4371251 313.31570435 236.27105713 C313.51410035 238.88029118 313.58846411 241.3833824 313.57449341 243.99371338 C313.57975037 245.18902176 313.57975037 245.18902176 313.58511353 246.40847778 C313.59393713 249.05025875 313.58807953 251.6917733 313.58132935 254.33355713 C313.58267582 256.1643682 313.5846162 257.99517893 313.58712769 259.82598877 C313.5900798 263.66611123 313.58577851 267.50614076 313.57644653 271.34625244 C313.56505194 276.27624407 313.57161095 281.20601795 313.58359146 286.13600159 C313.59080771 289.91743622 313.58852322 293.69881896 313.58333588 297.48025513 C313.58199873 299.29839097 313.58364937 301.11653147 313.58829498 302.93466187 C313.59335638 305.47270239 313.58565558 308.01038696 313.57449341 310.54840088 C313.5805661 311.68304276 313.5805661 311.68304276 313.58676147 312.84060669 C313.54423295 318.04252852 313.54423295 318.04252852 311.31570435 320.27105713 C310.88328815 322.44444309 310.54023051 324.63623916 310.25320435 326.83355713 C309.41292657 333.17383491 309.41292657 333.17383491 308.31570435 334.27105713 C308.0730877 336.52649337 307.93238301 338.78051236 307.79226685 341.04449463 C307.22261888 343.70596463 306.23949706 344.42763174 304.31570435 346.27105713 C303.94809703 348.59923677 303.61328854 350.93289563 303.31570435 353.27105713 C302.65570435 353.93105713 301.99570435 354.59105713 301.31570435 355.27105713 C300.93121382 357.17850529 300.93121382 357.17850529 300.81570435 359.27105713 C300.53792657 363.04883491 300.53792657 363.04883491 298.31570435 365.27105713 C297.93121382 367.17850529 297.93121382 367.17850529 297.81570435 369.27105713 C297.53792657 373.04883491 297.53792657 373.04883491 295.31570435 375.27105713 C294.62817134 376.92922497 293.96009151 378.59565049 293.31570435 380.27105713 C292.98570435 380.60105713 292.65570435 380.93105713 292.31570435 381.27105713 C292.13007935 382.94168213 292.13007935 382.94168213 291.94070435 384.64605713 C291.28766936 388.43366002 291.00664919 388.90302567 288.31570435 391.27105713 C287.60322703 392.91866093 286.94170052 394.58869242 286.31570435 396.27105713 C285.33283426 398.27953078 284.33193092 400.27925304 283.31570435 402.27105713 C282.60414185 403.78699463 282.60414185 403.78699463 281.87820435 405.33355713 C280.29238005 408.3149068 278.45265174 410.66665249 276.31570435 413.27105713 C275.57320435 414.50855713 275.57320435 414.50855713 274.81570435 415.77105713 C273.31570435 418.27105713 273.31570435 418.27105713 271.25320435 420.77105713 C269.23953367 423.10984124 269.23953367 423.10984124 268.44070435 425.64605713 C267.0664657 428.85261398 265.12163305 430.94943566 262.80789185 433.52886963 C261.15854415 435.36575846 261.15854415 435.36575846 259.56570435 438.08355713 C256.69201597 442.15461566 253.20704807 445.33010982 249.55789185 448.70855713 C247.14341803 451.1343709 247.14341803 451.1343709 246.3039856 454.31011963 C245.09434065 457.93427327 243.55403195 459.23549779 240.62820435 461.64605713 C236.65464085 465.04050098 233.19430894 468.50472087 229.88601685 472.54449463 C228.31570435 474.27105713 228.31570435 474.27105713 226.18289185 475.84918213 C223.76466283 477.6906787 223.38789117 479.45656672 222.31570435 482.27105713 C220.98237101 483.9377238 219.64903768 485.60439046 218.31570435 487.27105713 C217.98570435 488.11668213 217.65570435 488.96230713 217.31570435 489.83355713 C216.1386045 492.702738 214.49210169 494.09465978 212.31570435 496.27105713 C211.60859756 497.92097295 210.93626446 499.58667969 210.31570435 501.27105713 C209.65570435 501.93105713 208.99570435 502.59105713 208.31570435 503.27105713 C207.6252986 504.92803092 206.96264085 506.59663323 206.31570435 508.27105713 C205.31570435 510.27105713 204.31570435 512.27105713 203.31570435 514.27105713 C202.76650029 515.53865132 202.2248072 516.80952641 201.69070435 518.08355713 C200.31570435 521.27105713 200.31570435 521.27105713 199.31570435 522.27105713 C199.03264201 524.81861817 198.86754649 527.36615735 198.6946106 529.92340088 C198.31570435 532.27105713 198.31570435 532.27105713 196.31570435 534.27105713 C195.88470244 536.65853703 195.88470244 536.65853703 195.75320435 539.42730713 C195.67843872 540.44953369 195.6036731 541.47176025 195.52664185 542.52496338 C195.45703247 543.59617432 195.3874231 544.66738525 195.31570435 545.77105713 C195.1782581 547.88620217 195.03281928 550.00084775 194.87820435 552.11480713 C194.81761841 553.05517822 194.75703247 553.99554932 194.6946106 554.9644165 C194.31570435 557.27105713 194.31570435 557.27105713 192.31570435 559.27105713 C191.92687238 562.0977945 191.92687238 562.0977945 191.81570435 565.27105713 C191.53792657 571.04883491 191.53792657 571.04883491 189.31570435 573.27105713 C189.08882935 574.03418213 188.86195435 574.79730713 188.62820435 575.58355713 C186.75088153 579.42759909 184.10556729 581.47086538 180.31570435 583.27105713 C176.40239296 583.98114726 172.56028987 583.93363004 168.5917511 583.88578796 C167.41520173 583.89147122 166.23865236 583.89715448 165.02644998 583.90300995 C161.77352235 583.91367077 158.52157194 583.90198291 155.26872504 583.88070333 C151.75614673 583.86318704 148.24364541 583.87459707 144.73104858 583.88237 C137.85641999 583.89303208 130.98209816 583.87711171 124.10751631 583.85223173 C116.10470875 583.82429212 108.10196317 583.82295872 100.09911493 583.82278872 C85.82529845 583.82160189 71.5516229 583.79664094 57.27786255 583.75811768 C43.41912139 583.72073862 29.56048272 583.69951962 15.70169067 583.69659424 C14.84739281 583.69641143 13.99309495 583.69622862 13.11290928 583.69604027 C12.26010293 583.69586129 11.40729657 583.69568232 10.5286476 583.69549793 C8.811679 583.69513252 7.09471041 583.69476015 5.37774181 583.69438076 C4.53104485 583.69419525 3.68434788 583.69400973 2.81199343 583.6938186 C-10.38791606 583.6902518 -23.58780967 583.67180558 -36.78770307 583.65188752 C-41.57599107 583.64485831 -46.36427531 583.64007945 -51.15256736 583.63692617 C-58.74328609 583.63188495 -66.33393343 583.62050128 -73.92461536 583.59562587 C-77.39421014 583.58437829 -80.8637345 583.57629093 -84.33334923 583.57675934 C-88.08741566 583.57551013 -91.8412365 583.56203201 -95.59526062 583.54521179 C-96.70136226 583.54762688 -97.8074639 583.55004196 -98.94708377 583.55253023 C-99.94648351 583.54546464 -100.94588324 583.53839905 -101.97556782 583.53111935 C-102.84285175 583.52916842 -103.71013568 583.5272175 -104.60370094 583.52520746 C-106.68429565 583.27105713 -106.68429565 583.27105713 -108.68429565 581.27105713 C-109.50929565 580.94105713 -110.33429565 580.61105713 -111.18429565 580.27105713 C-113.68429565 579.27105713 -113.68429565 579.27105713 -115.68429565 577.27105713 C-116.37182866 575.61288929 -117.03990849 573.94646377 -117.68429565 572.27105713 C-118.01429565 571.94105713 -118.34429565 571.61105713 -118.68429565 571.27105713 C-118.92148308 567.66053743 -119.08085247 564.05685964 -119.20187378 560.440979 C-119.21772985 555.8813018 -119.21772985 555.8813018 -121.68429565 552.27105713 C-121.95553589 550.16387939 -121.95553589 550.16387939 -121.9928894 547.58746338 C-122.01802612 546.65998291 -122.04316284 545.73250244 -122.06906128 544.7769165 C-122.10414638 542.81864813 -122.13541207 540.8603075 -122.16281128 538.9019165 C-122.18923706 537.97314697 -122.21566284 537.04437744 -122.2428894 536.08746338 C-122.26307129 534.81044556 -122.26307129 534.81044556 -122.28366089 533.50762939 C-122.76938208 530.79605607 -123.7248647 530.11879258 -125.68429565 528.27105713 C-126.05190297 525.94287749 -126.38671146 523.60921863 -126.68429565 521.27105713 C-127.34429565 520.61105713 -128.00429565 519.95105713 -128.68429565 519.27105713 C-129.01762899 516.9377238 -129.35096232 514.60439046 -129.68429565 512.27105713 C-130.34429565 511.61105713 -131.00429565 510.95105713 -131.68429565 510.27105713 C-132.88407759 507.47156594 -133.92730411 504.62303458 -134.99679565 501.77105713 C-136.78756398 498.05687096 -138.75775907 496.12621478 -141.68429565 493.27105713 C-143.13358709 490.9928901 -144.38692774 488.64210884 -145.68429565 486.27105713 C-146.34429565 485.61105713 -147.00429565 484.95105713 -147.68429565 484.27105713 C-148.0710144 483.14183838 -148.0710144 483.14183838 -148.46554565 481.98980713 C-150.02722589 478.50605892 -152.42705102 476.31456187 -155.18429565 473.77105713 C-160.44583946 468.91738493 -160.44583946 468.91738493 -161.56124878 465.894104 C-162.93034173 462.69637907 -164.67612998 460.98457015 -167.18429565 458.58355713 C-168.07117065 457.71988525 -168.95804565 456.85621338 -169.87179565 455.96636963 C-171.26398315 454.63218994 -171.26398315 454.63218994 -172.68429565 453.27105713 C-174.52458139 451.50744997 -176.35821197 449.73686537 -178.18429565 447.95855713 C-178.99898315 447.17867432 -179.81367065 446.3987915 -180.65304565 445.59527588 C-182.74916933 443.19682668 -183.63497555 441.24739968 -184.68429565 438.27105713 C-186.55296581 435.65491891 -188.17865994 433.62797646 -190.80929565 431.77105713 C-193.18166589 429.87316094 -193.5911229 428.0723123 -194.68429565 425.27105713 C-195.34429565 424.63168213 -196.00429565 423.99230713 -196.68429565 423.33355713 C-198.68429565 421.27105713 -198.68429565 421.27105713 -199.62179565 418.33355713 C-200.91190749 414.61499949 -202.89400773 412.99158786 -205.68429565 410.27105713 C-206.80929565 407.83355713 -206.80929565 407.83355713 -207.68429565 405.27105713 C-209.15090608 402.27407061 -210.66691543 399.30509339 -212.18429565 396.33355713 C-214.10948864 392.40295478 -215.82007816 388.39505435 -217.4694519 384.34136963 C-218.63059944 381.52894194 -219.50999998 379.4453528 -221.68429565 377.27105713 C-222.37785989 374.94557706 -223.04578778 372.61225267 -223.68429565 370.27105713 C-224.01429565 369.94105713 -224.34429565 369.61105713 -224.68429565 369.27105713 C-224.82867065 368.13668213 -224.97304565 367.00230713 -225.12179565 365.83355713 C-225.33277116 362.23046715 -225.33277116 362.23046715 -227.68429565 360.27105713 C-228.05896948 358.22738173 -228.18825627 356.21719279 -228.34054565 354.14605713 C-228.54464931 352.03203427 -228.54464931 352.03203427 -230.68429565 350.27105713 C-231.05896948 348.22738173 -231.18825627 346.21719279 -231.34054565 344.14605713 C-231.54464931 342.03203427 -231.54464931 342.03203427 -233.68429565 340.27105713 C-234.03355223 336.99069788 -234.12755636 333.73141255 -234.2428894 330.43511963 C-234.40695009 327.29146526 -234.40695009 327.29146526 -236.1803894 325.39996338 C-238.53692379 322.06409003 -238.21608774 318.57485322 -238.30929565 314.58355713 C-238.01202673 309.52559253 -238.01202673 309.52559253 -239.68429565 305.27105713 C-240.91034978 297.94292997 -240.84458476 290.46684118 -240.8522644 283.06011963 C-240.8555928 281.92956146 -240.8589212 280.7990033 -240.86235046 279.63418579 C-240.86738222 277.26265873 -240.86975996 274.89112468 -240.86959839 272.51959229 C-240.87180184 268.88584975 -240.89004335 265.25240302 -240.90890503 261.61871338 C-240.91183632 259.3075165 -240.91382288 256.99631818 -240.9147644 254.68511963 C-240.92554268 253.05698837 -240.92554268 253.05698837 -240.9365387 251.39596558 C-240.93346207 250.38746552 -240.93038544 249.37896545 -240.92721558 248.33990479 C-240.92864059 247.45517487 -240.93006561 246.57044495 -240.93153381 245.65890503 C-240.66563558 243.09083648 -239.92579447 241.50941226 -238.68429565 239.27105713 C-238.37274305 237.29855088 -238.37274305 237.29855088 -238.3757019 235.26715088 C-238.35056519 234.52658447 -238.32542847 233.78601807 -238.29953003 233.02301025 C-238.26428673 231.47622108 -238.23305623 229.92933543 -238.20578003 228.38238525 C-237.9997187 222.61769391 -237.9997187 222.61769391 -236.18429565 220.62261963 C-235.68929565 220.176604 -235.19429565 219.73058838 -234.68429565 219.27105713 C-234.17883536 216.37347827 -234.17883536 216.37347827 -234.12179565 213.20855713 C-233.89262899 207.47939046 -233.89262899 207.47939046 -231.68429565 205.27105713 C-231.29624752 202.6739962 -231.29624752 202.6739962 -231.18429565 199.77105713 C-230.90651788 194.49327935 -230.90651788 194.49327935 -228.68429565 192.27105713 C-228.51929565 191.11605713 -228.35429565 189.96105713 -228.18429565 188.77105713 C-227.68429565 185.27105713 -227.68429565 185.27105713 -225.68429565 183.27105713 C-225.56054565 181.47668213 -225.56054565 181.47668213 -225.43429565 179.64605713 C-225.00203818 175.04916512 -222.91998909 172.70021563 -220.04367065 169.22808838 C-218.08119606 166.40280168 -217.95386786 163.64070971 -217.68429565 160.27105713 C-216.69429565 159.28105713 -216.69429565 159.28105713 -215.68429565 158.27105713 C-215.00403929 156.27563845 -214.33939068 154.27487722 -213.68429565 152.27105713 C-212.71953183 150.25382368 -211.71591174 148.25493421 -210.68429565 146.27105713 C-210.37363159 145.59429932 -210.06296753 144.9175415 -209.7428894 144.22027588 C-207.82440717 140.1049434 -206.37160349 137.97508288 -202.68429565 135.27105713 C-201.99171337 133.27988305 -201.3268193 131.27894353 -200.68429565 129.27105713 C-199.39703658 127.5685532 -198.06297846 125.90040954 -196.68429565 124.27105713 C-195.0918931 121.82120704 -193.80764109 119.62610753 -192.84835815 116.86480713 C-191.18239551 113.15272929 -188.52714282 111.03953543 -185.55929565 108.33355713 C-183.49580728 106.06371992 -182.76363959 104.11660022 -181.68429565 101.27105713 C-178.01431935 96.21244114 -173.46682746 92.13431621 -168.7194519 88.11871338 C-166.52659458 86.12788514 -164.62093735 84.01089127 -162.68429565 81.77105713 C-159.5857718 78.18838892 -156.3157968 75.14562896 -152.69992065 72.09918213 C-149.71398662 69.3910094 -147.14464279 66.36055829 -144.54367065 63.28668213 C-141.99851755 60.52765061 -139.73142917 58.67075163 -136.20773315 57.32574463 C-133.29097984 56.10666817 -131.58680643 54.57490318 -129.30929565 52.39605713 C-125.58887245 48.97745634 -122.11845872 46.65236692 -117.68429565 44.27105713 C-116.48649099 43.41021729 -115.29905006 42.53479405 -114.12179565 41.64605713 C-111.81324105 39.94175507 -110.36827388 39.16993016 -107.55929565 38.27105713 C-103.94569295 37.01415184 -102.29925635 35.02011837 -99.68429565 32.27105713 C-96.16419095 29.83406156 -92.73457386 28.59359695 -88.68429565 27.27105713 C-86.67582201 26.28818705 -84.67609975 25.28728371 -82.68429565 24.27105713 C-81.43733298 23.74299327 -80.18726826 23.22219807 -78.93429565 22.70855713 C-75.67198916 21.49918076 -75.67198916 21.49918076 -73.68429565 19.27105713 C-72.02612781 18.58352412 -70.35970229 17.9154443 -68.68429565 17.27105713 C-68.35429565 16.94105713 -68.02429565 16.61105713 -67.68429565 16.27105713 C-65.98273315 16.05449463 -65.98273315 16.05449463 -64.24679565 15.83355713 C-60.64370568 15.62258162 -60.64370568 15.62258162 -58.68429565 13.27105713 C-55.18429565 12.77105713 -55.18429565 12.77105713 -51.68429565 12.27105713 C-51.02429565 11.61105713 -50.36429565 10.95105713 -49.68429565 10.27105713 C-47.64062026 9.89638331 -45.63043131 9.76709652 -43.55929565 9.61480713 C-41.44527279 9.41070347 -41.44527279 9.41070347 -39.68429565 7.27105713 C-36.92422003 6.92495241 -34.18942746 6.82854916 -31.41085815 6.71246338 C-28.65186607 6.5018932 -28.65186607 6.5018932 -26.87179565 4.77105713 C-23.49628748 2.45642295 -20.06325446 2.77909667 -16.05929565 2.70855713 C-9.8827427 2.57004639 -5.88864371 0.04590321 0 0 Z M-114.12155151 116.72149658 C-115.68429565 118.27105713 -115.68429565 118.27105713 -118.68429565 120.70855713 C-122.44797843 123.9233695 -125.49382518 127.498831 -128.68429565 131.27105713 C-129.51058472 132.20949463 -130.33687378 133.14793213 -131.1882019 134.11480713 C-148.21784145 153.57021601 -161.61897816 176.06577548 -170.68429565 200.27105713 C-171.14594116 201.48366211 -171.14594116 201.48366211 -171.61691284 202.72076416 C-178.5753598 221.27298717 -183.40175535 241.39232868 -183.68429565 261.27105713 C-183.70330933 262.18258545 -183.722323 263.09411377 -183.74191284 264.03326416 C-184.84213339 321.59644254 -166.83555032 373.53914784 -126.6100769 415.43121338 C-125.49378391 416.53245523 -124.37304663 417.62922025 -123.24679565 418.72027588 C-120.20564488 421.73861802 -117.4635659 425.01357237 -114.68429565 428.27105713 C-113.94437378 429.11023682 -113.2044519 429.9494165 -112.44210815 430.81402588 C-91.30545817 455.2933729 -71.98777516 488.48656264 -66.4850769 520.70465088 C-65.47804741 523.93205761 -64.31615436 525.15868253 -61.68429565 527.27105713 C-58.80744007 527.86812565 -58.80744007 527.86812565 -55.58639526 527.77276611 C-54.35509384 527.78214706 -53.12379242 527.79152802 -51.85517883 527.80119324 C-50.5156586 527.79071601 -49.17614509 527.77934714 -47.8366394 527.76715088 C-46.45948714 527.76730589 -45.08233443 527.7687953 -43.70518494 527.77156067 C-40.82261815 527.77294372 -37.94054951 527.76040178 -35.05807495 527.73760986 C-31.36340505 527.70919794 -27.66956095 527.7119706 -23.97482967 527.72469997 C-21.13263392 527.73165412 -18.2906291 527.72387153 -15.44845772 527.71144295 C-14.08610326 527.70692769 -12.72372831 527.70659232 -11.36137199 527.71050835 C-9.45848081 527.71341828 -7.55559345 527.69476166 -5.65280151 527.67510986 C-4.57010483 527.66970688 -3.48740814 527.66430389 -2.37190247 527.65873718 C0.32993512 527.48008029 0.32993512 527.48008029 2.19508362 525.92060852 C3.58988493 524.21736472 3.58988493 524.21736472 3.21414185 521.47418213 C2.21701012 517.91919076 0.79499343 515.21497546 -1.05929565 512.02105713 C-22.09853961 473.97300183 -34.51081971 428.86622343 -41.68429565 386.27105713 C-41.83737183 385.37693115 -41.990448 384.48280518 -42.14816284 383.56158447 C-52.92250203 319.31504731 -47.3890873 246.67891615 -9.3053894 191.78277588 C8.26224514 167.73803086 30.71070071 151.81388036 60.19070435 146.58355713 C79.76536007 144.69053487 98.96614286 147.87218597 114.7883606 160.13043213 C129.67368077 172.73809125 136.38783307 191.4551971 138.9211731 210.39605713 C139.25590269 213.18847716 139.25590269 213.18847716 139.86428833 215.55401611 C147.52239962 261.64764542 114.49661718 313.93454855 89.31570435 349.27105713 C75.51933072 368.51119245 60.99237475 387.27199384 45.71414185 405.36090088 C36.89701815 415.87362529 29.7364862 426.08021257 30.31570435 440.27105713 C34.8297901 470.10866793 49.62915673 499.59812704 69.31570435 522.27105713 C70.1969397 523.55883057 70.1969397 523.55883057 71.09597778 524.87261963 C74.69285198 528.40797602 79.15073805 527.88974387 83.92753601 527.94013977 C85.20160812 527.92688156 86.47568024 527.91362335 87.7883606 527.89996338 C89.76116249 527.90358131 89.76116249 527.90358131 91.77381897 527.90727234 C94.55217533 527.91012512 97.32972317 527.89548051 100.10794067 527.86798096 C103.66480255 527.8338636 107.22022262 527.83993114 110.77715397 527.85864353 C114.17686586 527.87176501 117.57615877 527.85349793 120.9758606 527.83746338 C122.25195694 527.84242325 123.52805328 527.84738312 124.84281921 527.85249329 C126.02762375 527.83665695 127.21242828 527.82082062 128.43313599 527.80450439 C129.47506607 527.79830582 130.51699615 527.79210724 131.59049988 527.78572083 C135.01695223 527.13862419 136.18260239 525.97858953 138.31570435 523.27105713 C139.38014877 520.27459053 139.38014877 520.27459053 140.06570435 516.83355713 C148.71018371 481.17895668 168.71160201 449.03919141 193.31570435 422.27105713 C194.46608008 420.96253661 195.61212244 419.65019009 196.75320435 418.33355713 C199.48241194 415.18930875 202.29655803 412.13573665 205.12820435 409.08355713 C215.45741899 397.69333554 223.60600696 385.52359596 231.31570435 372.27105713 C231.68437622 371.65037354 232.0530481 371.02968994 232.43289185 370.39019775 C241.5738125 354.90905207 247.50458057 337.74353277 251.75320435 320.33355713 C251.98797485 319.37723389 252.22274536 318.42091064 252.46463013 317.43560791 C255.79170331 302.91321666 256.70066696 288.36795186 256.62820435 273.52105713 C256.62638153 272.73802216 256.62455872 271.95498718 256.62268066 271.14822388 C256.57387547 258.64153495 255.88809311 246.54323375 253.31570435 234.27105713 C253.1440979 233.42124268 252.97249146 232.57142822 252.79568481 231.69586182 C244.85406508 193.15877947 226.83165625 157.52854418 199.77664185 128.88433838 C197.651344 126.62747448 195.62845799 124.32537309 193.62820435 121.95855713 C190.17124667 117.98915632 186.33950763 114.65212312 182.31570435 111.27105713 C181.34504028 110.42414307 180.37437622 109.577229 179.3742981 108.70465088 C108.95421598 47.50213922 9.83620492 40.27077883 -114.12155151 116.72149658 Z M48.84524536 206.01251221 C18.47516533 233.48374022 5.94948584 273.3341374 3.45193481 313.25250244 C2.85754456 326.42282705 2.95931595 339.67277244 3.6399231 352.83746338 C3.72439697 354.50917603 3.72439697 354.50917603 3.81057739 356.21466064 C4.37097995 359.60551593 5.18745375 361.57872124 7.31570435 364.27105713 C9.40104068 365.14928025 9.40104068 365.14928025 11.31570435 365.27105713 C16.70658487 359.37812782 21.69881138 353.32030805 26.44070435 346.89605713 C27.07597046 346.04189209 27.71123657 345.18772705 28.36575317 344.30767822 C30.35346675 341.63203266 32.3348349 338.95177218 34.31570435 336.27105713 C35.62936543 334.50011919 36.94316544 332.72928431 38.2571106 330.95855713 C39.50625944 329.2713909 40.75497412 327.5839031 42.00320435 325.89605713 C42.57893188 325.11826904 43.15465942 324.34048096 43.74783325 323.53912354 C46.7127083 319.5145459 49.56821818 315.44890486 52.31570435 311.27105713 C53.35231505 309.78834282 54.39389316 308.30908748 55.44070435 306.83355713 C56.7354523 304.98154078 58.02676923 303.12712369 59.31570435 301.27105713 C59.70065063 300.71740479 60.08559692 300.16375244 60.48220825 299.59332275 C78.13473636 274.07261014 93.04578068 243.53929288 88.69070435 211.64605713 C87.2638207 204.45048674 83.35554341 199.34138346 77.31570435 195.27105713 C66.45085224 192.06098719 56.66390972 199.19272467 48.84524536 206.01251221 Z " fill="#0C0C0C" transform="translate(475.6842956542969,138.72894287109375)"/>
<path d="M0 0 C0.88532333 -0.00569124 1.77064666 -0.01138248 2.68279797 -0.01724619 C3.66661998 -0.01842606 4.650442 -0.01960594 5.66407681 -0.02082157 C6.70059256 -0.02590939 7.73710831 -0.03099721 8.80503362 -0.03623921 C12.30723585 -0.05203966 15.80941734 -0.06050875 19.31164455 -0.06893253 C21.8110966 -0.07846499 24.3105473 -0.08835587 26.8099966 -0.09858036 C34.33359169 -0.12732268 41.85718651 -0.14706084 49.38081542 -0.16397271 C51.50561291 -0.16876594 53.63040988 -0.17374951 55.75520682 -0.17877793 C68.94616682 -0.20975435 82.13713117 -0.23644433 95.32811737 -0.25319672 C98.38561479 -0.25714633 101.44311214 -0.2611493 104.5006094 -0.2652216 C105.26055218 -0.26622996 106.02049496 -0.26723832 106.80346631 -0.26827724 C119.10713125 -0.28527481 131.41059472 -0.32637059 143.71416134 -0.37724458 C156.34324963 -0.42903512 168.97223439 -0.45814115 181.60142797 -0.4653936 C188.69330809 -0.47005485 195.78485867 -0.48479436 202.87663364 -0.5251379 C209.55057815 -0.56305773 216.22386186 -0.57042807 222.89793301 -0.55713177 C225.34729606 -0.55718579 227.79668374 -0.56751273 230.24595356 -0.5888834 C233.59157506 -0.61651346 236.93513808 -0.60707701 240.28077602 -0.58844852 C241.24898299 -0.60524345 242.21718995 -0.62203838 243.21473652 -0.63934225 C249.23786517 -0.55559902 252.73396589 0.72667395 257.45534509 4.48669952 C259.76963417 7.10435754 259.78657752 9.75222509 259.91686916 13.1398077 C260.57686916 13.7998077 261.23686916 14.4598077 261.91686916 15.1398077 C262.17565823 17.35465145 262.17565823 17.35465145 262.18249416 20.0773077 C262.18507229 21.05441708 262.18765041 22.03152645 262.19030666 23.0382452 C262.18257229 24.06176083 262.17483791 25.08527645 262.16686916 26.1398077 C262.17460354 27.16332333 262.18233791 28.18683895 262.19030666 29.2413702 C262.18643948 30.70703426 262.18643948 30.70703426 262.18249416 32.2023077 C262.1802383 33.10078426 262.17798244 33.99926083 262.17565823 34.92496395 C261.91686916 37.1398077 261.91686916 37.1398077 259.91686916 39.1398077 C259.48374416 40.3154327 259.48374416 40.3154327 259.04186916 41.5148077 C257.65639916 44.74757105 256.79067994 46.05388639 253.91686916 48.1398077 C250.48873645 48.75238212 247.08682288 48.68324123 243.61234951 48.6544714 C242.55214716 48.66141693 241.49194481 48.66836245 240.39961511 48.67551845 C236.8350862 48.69386371 233.27121719 48.68350276 229.70666409 48.67325497 C227.15588283 48.68030969 224.60510577 48.6890528 222.05433559 48.69936275 C215.83740086 48.71957417 209.62071132 48.7208708 203.40375634 48.71273721 C198.35002227 48.7064398 193.29634157 48.70757186 188.24260807 48.71400928 C187.52357717 48.71491094 186.80454627 48.7158126 186.06372655 48.71674157 C184.60303279 48.71859277 183.14233904 48.72045533 181.68164531 48.72232913 C167.9783356 48.73891494 154.27512878 48.7301826 140.57182524 48.71334355 C128.03812344 48.69865384 115.50466152 48.71326323 102.97099062 48.74211372 C90.10109277 48.77151738 77.2313056 48.78247668 64.36137563 48.77293152 C62.90510962 48.77190897 61.4488436 48.77091436 59.99257755 48.76994801 C58.91782195 48.76923342 58.91782195 48.76923342 57.82135412 48.7685044 C52.77607953 48.7663411 47.73090979 48.77614008 42.68565845 48.79071903 C35.89021019 48.8100813 29.09527822 48.80314605 22.29982471 48.77851963 C19.80491262 48.77350391 17.30996668 48.77702106 14.8150816 48.78966808 C11.41031929 48.8055625 8.00703209 48.7906793 4.60233974 48.76799679 C3.61381156 48.77983252 2.62528337 48.79166824 1.60679978 48.80386263 C-4.9240769 48.71540764 -8.16227233 47.48007227 -13.08313084 43.1398077 C-16.2238614 39.37093102 -16.51140538 35.87243331 -16.77453709 31.12808895 C-16.91830348 28.91110713 -16.91830348 28.91110713 -19.08313084 27.1398077 C-19.33313084 24.6398077 -19.33313084 24.6398077 -19.08313084 22.1398077 C-18.42313084 21.4798077 -17.76313084 20.8198077 -17.08313084 20.1398077 C-16.69864031 18.23235954 -16.69864031 18.23235954 -16.58313084 16.1398077 C-16.30535306 12.36202992 -16.30535306 12.36202992 -14.08313084 10.1398077 C-13.75313084 9.3148077 -13.42313084 8.4898077 -13.08313084 7.6398077 C-12.08313084 5.1398077 -12.08313084 5.1398077 -10.08313084 3.1398077 C-8.424963 2.45227469 -6.75853747 1.78419487 -5.08313084 1.1398077 C-3.54621474 -0.3971084 -2.14282408 0.00799535 0 0 Z " fill="#0C0C0C" transform="translate(389.0831308364868,746.8601922988892)"/>
<path d="M0 0 C0.80928766 -0.00779995 1.61857533 -0.01559991 2.45238686 -0.02363622 C5.16191875 -0.0435668 7.87004774 -0.02778808 10.57958984 -0.01205444 C12.52293721 -0.01883011 14.46627816 -0.02773295 16.40960693 -0.03860474 C21.68649774 -0.06141066 26.96290009 -0.05255627 32.2397995 -0.03670931 C37.76014022 -0.0240571 43.2804389 -0.03578854 48.80078125 -0.04364014 C58.07152827 -0.05273866 67.34207618 -0.04074338 76.61279297 -0.01693726 C87.3335268 0.0102743 98.05378521 0.00146029 108.77450752 -0.02606928 C117.97635024 -0.04875349 127.17804978 -0.05196377 136.37991142 -0.03887594 C141.87699045 -0.03107768 147.37384595 -0.03005025 152.87091064 -0.04655838 C158.03882368 -0.06099375 163.20612332 -0.05099818 168.37397003 -0.0220871 C170.27145621 -0.01547133 172.16899394 -0.01738231 174.06645966 -0.02840042 C176.65535664 -0.04204838 179.24228355 -0.0249507 181.83105469 0 C182.58348764 -0.01115361 183.3359206 -0.02230722 184.11115456 -0.03379881 C188.00902185 0.03916189 189.75160899 0.50494782 192.84268188 2.9558506 C195.29951678 6.13120879 196.078165 8.72722728 196.91552734 12.63491821 C197.16302734 13.56304321 197.41052734 14.49116821 197.66552734 15.44741821 C197.74802734 16.16929321 197.83052734 16.89116821 197.91552734 17.63491821 C197.25552734 18.29491821 196.59552734 18.95491821 195.91552734 19.63491821 C195.75052734 20.78991821 195.58552734 21.94491821 195.41552734 23.13491821 C194.91552734 26.63491821 194.91552734 26.63491821 192.91552734 28.63491821 C192.23527097 30.6303369 191.57062237 32.63109812 190.91552734 34.63491821 C188.05593198 41.64092685 183.24118584 44.87371586 176.91552734 48.63491821 C176.44115234 49.15054321 175.96677734 49.66616821 175.47802734 50.19741821 C173.2424605 52.25413971 170.79658231 52.73105783 167.91552734 53.63491821 C164.16090062 55.24558227 164.16090062 55.24558227 160.91552734 57.63491821 C158.91984856 57.82804842 156.92343215 58.01812784 154.92333984 58.15835571 C152.81570849 58.46679505 152.81570849 58.46679505 151.47412109 60.13882446 C149.33022535 62.19674945 147.77723557 62.06391239 144.85302734 62.19741821 C140.91051905 62.25294138 140.91051905 62.25294138 137.91552734 64.63491821 C135.60888672 64.92202759 135.60888672 64.92202759 132.75927734 64.97866821 C131.73705078 65.00831665 130.71482422 65.03796509 129.66162109 65.06851196 C127.49755859 65.1127828 125.33349609 65.15705363 123.16943359 65.20132446 C122.14720703 65.2309729 121.12498047 65.26062134 120.07177734 65.29116821 C118.6612207 65.31920532 118.6612207 65.31920532 117.22216797 65.34780884 C114.72167058 65.41920707 114.72167058 65.41920707 112.91552734 67.63491821 C110.94213867 67.8888855 110.94213867 67.8888855 108.49755859 67.89370728 C107.12603638 67.90316376 107.12603638 67.90316376 105.72680664 67.91281128 C104.73720947 67.90876282 103.7476123 67.90471436 102.72802734 67.90054321 C101.71458252 67.90245667 100.7011377 67.90437012 99.65698242 67.90634155 C97.51171623 67.90770412 95.36644181 67.90400268 93.22119141 67.8956604 C89.92901162 67.88496203 86.63737756 67.8955534 83.34521484 67.90835571 C81.26448447 67.90703413 79.18375443 67.90447177 77.10302734 67.90054321 C76.11343018 67.90459167 75.12383301 67.90864014 74.10424805 67.91281128 C73.1898999 67.90650696 72.27555176 67.90020264 71.33349609 67.89370728 C70.52678467 67.89211609 69.72007324 67.8905249 68.88891602 67.8888855 C66.91552734 67.63491821 66.91552734 67.63491821 64.91552734 65.63491821 C62.91653878 65.29853762 62.91653878 65.29853762 60.63427734 65.29116821 C59.37164062 65.24669556 59.37164062 65.24669556 58.08349609 65.20132446 C56.76285156 65.16845337 56.76285156 65.16845337 55.41552734 65.13491821 C53.67570334 65.09161366 51.93606166 65.03992938 50.19677734 64.97866821 C49.42398438 64.95997681 48.65119141 64.9412854 47.85498047 64.92202759 C45.91552734 64.63491821 45.91552734 64.63491821 43.91552734 62.63491821 C40.8627058 62.28790684 37.83286768 62.19195047 34.76318359 62.07632446 C31.55381615 61.5788505 31.02269534 60.93364694 28.91552734 58.63491821 C26.93874131 58.13681613 26.93874131 58.13681613 24.85302734 58.07241821 C20.91552734 57.63491821 20.91552734 57.63491821 18.91552734 55.63491821 C17.26561152 54.92781143 15.59475114 54.26929165 13.91552734 53.63491821 C9.26365448 51.83945851 6.30809288 50.25365478 2.91552734 46.63491821 C2.11115234 46.16054321 1.30677734 45.68616821 0.47802734 45.19741821 C-5.17568367 41.75003345 -8.06944862 37.25857175 -11.06884766 31.52554321 C-11.94308821 29.68020521 -11.94308821 29.68020521 -13.08447266 28.63491821 C-13.42075896 24.8940523 -13.40953994 21.13895082 -13.45947266 17.38491821 C-13.49685547 16.33433228 -13.53423828 15.28374634 -13.57275391 14.20132446 C-13.58435547 13.18425415 -13.59595703 12.16718384 -13.60791016 11.11929321 C-13.62772949 10.18826782 -13.64754883 9.25724243 -13.66796875 8.29800415 C-12.08165377 1.05803601 -6.52863976 -0.09677659 0 0 Z " fill="#0C0C0C" transform="translate(421.08447265625,817.3650817871094)"/>
<path d="M0 0 C0.66 0 1.32 0 2 0 C3.66403076 2.53222073 5.09126228 5.1642721 6.5625 7.8125 C7.036875 8.534375 7.51125 9.25625 8 10 C8.66 10 9.32 10 10 10 C11.41630143 12.03593331 12.71778232 14.06892104 14 16.1875 C17.93108024 22.52456728 22.25683786 28.35629487 26.93359375 34.16015625 C29 37 29 37 29.99609375 39.5390625 C31.30826592 42.75567132 33.26255003 44.78130361 35.625 47.3125 C36.44226563 48.19550781 37.25953125 49.07851563 38.1015625 49.98828125 C38.72804688 50.65214844 39.35453125 51.31601562 40 52 C36.33089619 52 35.44272022 50.83248058 32.92382812 48.33398438 C32.43333984 47.83189453 31.94285156 47.32980469 31.4375 46.8125 C30.94314453 46.32974609 30.44878906 45.84699219 29.93945312 45.34960938 C27.02689471 42.41340366 25.31797984 39.90095539 24 36 C22.13132984 33.38386178 20.50563571 31.35691933 17.875 29.5 C15.50262976 27.60210381 15.09317275 25.80125517 14 23 C13.34 22.360625 12.68 21.72125 12 21.0625 C10 19 10 19 9.0625 16.0625 C7.77238817 12.34394237 5.79028793 10.72053073 3 8 C1.75 5.375 1.75 5.375 1 3 C0.67 2.01 0.34 1.02 0 0 Z " fill="#424241" transform="translate(267,541)"/>
<path d="M0 0 C0.33 0.99 0.66 1.98 1 3 C-2.83705065 6.4168549 -6.54912922 9.40365871 -11 12 C-11.7115625 12.7734375 -11.7115625 12.7734375 -12.4375 13.5625 C-14.6708952 15.61722358 -17.12451162 16.14347155 -20 17 C-20.66 17.33 -21.32 17.66 -22 18 C-20.63016497 14.83884224 -20.0109362 14.0072908 -17 12 C-16.34 12.33 -15.68 12.66 -15 13 C-14.7525 12.4225 -14.505 11.845 -14.25 11.25 C-12.83400344 8.70120619 -11.05276785 7.05276785 -9 5 C-8.67 4.01 -8.34 3.02 -8 2 C-6.68 2.66 -5.36 3.32 -4 4 C-2.68 2.68 -1.36 1.36 0 0 Z " fill="#141514" transform="translate(609,854)"/>
<path d="M0 0 C0.66 0 1.32 0 2 0 C2.1953125 6.0546875 2.1953125 6.0546875 2 8 C1.34 8.66 0.68 9.32 0 10 C-0.43241619 12.17338596 -0.77547383 14.36518203 -1.0625 16.5625 C-1.90277778 22.90277778 -1.90277778 22.90277778 -3 24 C-3.23192865 25.51469448 -3.41215238 27.03754562 -3.5625 28.5625 C-3.64628906 29.38878906 -3.73007812 30.21507812 -3.81640625 31.06640625 C-3.87699219 31.70449219 -3.93757812 32.34257812 -4 33 C-4.66 33 -5.32 33 -6 33 C-7.372129 27.760962 -6.35812789 25.71625577 -4 21 C-4 19.0036816 -4.0024698 17.00612416 -4.08984375 15.01171875 C-3.94167526 11.69403306 -2.37883677 8.97828742 -1 6 C-0.60235737 4.01178687 -0.24544834 2.01267638 0 0 Z " fill="#0C0C0C" transform="translate(787,449)"/>
<path d="M0 0 C0.66 0 1.32 0 2 0 C1.125 4.875 1.125 4.875 0 6 C-0.22753357 7.7037908 -0.39473238 9.41573499 -0.53515625 11.12890625 C-0.62216797 12.16337891 -0.70917969 13.19785156 -0.79882812 14.26367188 C-0.88583984 15.35228516 -0.97285156 16.44089844 -1.0625 17.5625 C-1.15337891 18.65498047 -1.24425781 19.74746094 -1.33789062 20.87304688 C-1.56262811 23.58172492 -1.78314089 26.29068166 -2 29 C-2.66 29 -3.32 29 -4 29 C-4.89405005 20.61526036 -5.27904619 13.17443013 -3 5 C-2.01 4.67 -1.02 4.34 0 4 C0 2.68 0 1.36 0 0 Z " fill="#3B3B3B" transform="translate(672,667)"/>
<path d="M0 0 C3.53391969 1.48171072 5.59930326 3.45548562 8.125 6.3125 C8.80820312 7.07175781 9.49140625 7.83101562 10.1953125 8.61328125 C12.01463588 11.0193561 12.91275472 13.20955932 14 16 C15.62935241 17.37868281 17.29749607 18.71274093 19 20 C22 23.51724138 22 23.51724138 22 26 C20 26 20 26 18.125 24.25 C17.42375 23.5075 16.7225 22.765 16 22 C15.3709375 21.38511719 14.741875 20.77023438 14.09375 20.13671875 C12.03376869 18.03446171 10.19439499 15.87481478 8.375 13.5625 C7.78460937 12.82128906 7.19421875 12.08007812 6.5859375 11.31640625 C4.96169942 8.94405851 4.01174376 6.68023348 3 4 C2.04175747 2.63634717 1.05278825 1.29205831 0 0 Z " fill="#535353" transform="translate(719,230)"/>
<path d="M0 0 C9.27849769 9.01339776 9.27849769 9.01339776 10.85546875 13.35546875 C12.27045927 16.62491784 14.19978202 18.71405216 16.625 21.3125 C17.44226563 22.19550781 18.25953125 23.07851563 19.1015625 23.98828125 C19.72804688 24.65214844 20.35453125 25.31601562 21 26 C17.33089619 26 16.44272022 24.83248058 13.92382812 22.33398438 C13.43333984 21.83189453 12.94285156 21.32980469 12.4375 20.8125 C11.94314453 20.32974609 11.44878906 19.84699219 10.93945312 19.34960938 C8.01570708 16.40212521 6.37528669 13.88469606 5 10 C3.75459047 8.33851467 3.75459047 8.33851467 2.375 6.9375 C0 4 0 4 0 0 Z " fill="#10100F" transform="translate(286,567)"/>
<path d="M0 0 C5.12038777 1.70679592 7.48170349 6.42127907 10 11 C10.309375 11.804375 10.61875 12.60875 10.9375 13.4375 C11.97437868 16.19402706 11.97437868 16.19402706 14.125 19.0625 C16 22 16 22 16 26 C15.34 26 14.68 26 14 26 C13.40832031 24.865625 12.81664062 23.73125 12.20703125 22.5625 C11.40901803 21.04158068 10.61083165 19.5207522 9.8125 18 C9.42513672 17.25621094 9.03777344 16.51242187 8.63867188 15.74609375 C6.25141313 11.20832918 3.7116071 6.83593175 0.92456055 2.53125 C0 1 0 1 0 0 Z " fill="#020202" transform="translate(744,265)"/>
<path d="M0 0 C0.66 0 1.32 0 2 0 C1.68986025 3.27944065 1.24554288 4.73799351 -1.0390625 7.17578125 C-1.89242187 7.88089844 -2.74578125 8.58601562 -3.625 9.3125 C-8.20221451 13.23206875 -12.17517827 17.35195505 -16 22 C-16.33 21.01 -16.66 20.02 -17 19 C-16.5560791 18.53102295 -16.1121582 18.0620459 -15.65478516 17.57885742 C-13.64258555 15.45053899 -11.6337633 13.31906179 -9.625 11.1875 C-8.92632813 10.44951172 -8.22765625 9.71152344 -7.5078125 8.95117188 C-6.8375 8.23896484 -6.1671875 7.52675781 -5.4765625 6.79296875 C-4.85861816 6.1383667 -4.24067383 5.48376465 -3.60400391 4.80932617 C-1.82490211 2.88564392 -1.82490211 2.88564392 0 0 Z " fill="#F0F0F0" transform="translate(720,591)"/>
<path d="M0 0 C3.4087928 1.3984791 4.87393835 2.85006933 6.75 6 C7.17796875 6.70125 7.6059375 7.4025 8.046875 8.125 C9 10 9 10 9 12 C9.99 12 10.98 12 12 12 C12.86646667 13.43011973 13.71781829 14.86940619 14.5625 16.3125 C15.03816406 17.11300781 15.51382812 17.91351562 16.00390625 18.73828125 C17 21 17 21 16 24 C13 22 13 22 12.125 19.1875 C10.77865664 15.37286048 8.87350322 13.80508647 6 11 C3.68972611 7.51487693 1.80800019 3.76666706 0 0 Z " fill="#131313" transform="translate(328,621)"/>
<path d="M0 0 C0.66 0 1.32 0 2 0 C1.566875 0.8353125 1.566875 0.8353125 1.125 1.6875 C-0.02879684 3.98400589 -0.02879684 3.98400589 -0.9375 6.375 C-3.0309633 11.5470858 -5.46483328 15.69151555 -9 20 C-10.01187895 21.65948148 -11.0126546 23.32580562 -12 25 C-12.98244845 26.34631825 -13.97676564 27.68441297 -15 29 C-15.66 28.67 -16.32 28.34 -17 28 C-16.35933594 27.06800781 -15.71867188 26.13601563 -15.05859375 25.17578125 C-9.50335363 17.01510984 -4.48179836 8.8003524 0 0 Z " fill="#BDBCBC" transform="translate(761,532)"/>
<path d="M0 0 C0.99 0 1.98 0 3 0 C2.566875 0.8353125 2.566875 0.8353125 2.125 1.6875 C0.94847042 3.99242528 0.94847042 3.99242528 0.125 6.5 C-1.17036793 9.3785954 -2.56357279 11.00655955 -5 13 C-5.99 13 -6.98 13 -8 13 C-7.49935858 8.66110771 -4.78273829 6.18996829 -2 3 C-1.34 2.01 -0.68 1.02 0 0 Z " fill="#1E1F1E" transform="translate(648,782)"/>
<path d="M0 0 C0.66 0 1.32 0 2 0 C1.41147564 3.24751995 0.42011512 4.96716699 -1.8125 7.375 C-3.79599698 9.58518235 -5.41355496 11.62659843 -7.0625 14.125 C-9.09489614 17.14081363 -11.3617737 19.50834183 -14 22 C-14.66 21.67 -15.32 21.34 -16 21 C-15.43152344 20.32195313 -14.86304688 19.64390625 -14.27734375 18.9453125 C-9.67955221 13.40340016 -5.36881386 7.81831516 -1.41015625 1.80078125 C-0.71212891 0.90939453 -0.71212891 0.90939453 0 0 Z " fill="#C8C8C7" transform="translate(742,563)"/>
<path d="M0 0 C1.32 0.33 2.64 0.66 4 1 C4.33623796 2.2909136 4.66889249 3.58276097 5 4.875 C5.185625 5.59429687 5.37125 6.31359375 5.5625 7.0546875 C6 9 6 9 6 11 C6.495 11.4125 6.99 11.825 7.5 12.25 C9.65847858 14.76822501 9.21374961 16.79375585 9 20 C8.01 19.67 7.02 19.34 6 19 C5.25740651 16.68970915 4.588562 14.354248 4 12 C3.67 11.67 3.34 11.34 3 11 C2.855625 9.906875 2.71125 8.81375 2.5625 7.6875 C2.08526936 4.55898801 1.59539315 2.65898859 0 0 Z " fill="#3F3F3F" transform="translate(248,497)"/>
<path d="M0 0 C0.66 0.33 1.32 0.66 2 1 C0.02 1.99 0.02 1.99 -2 3 C-1.34 2.01 -0.68 1.02 0 0 Z M-7.0625 7.125 C-6.381875 7.41375 -5.70125 7.7025 -5 8 C-8.7935871 11.21880117 -12.65829477 13.6163187 -17 16 C-17 13 -17 13 -15.64453125 11.359375 C-10.65052704 6.972318 -10.65052704 6.972318 -7.0625 7.125 Z " fill="#565656" transform="translate(347,190)"/>
<path d="M0 0 C-1.25082742 3.75248225 -2.36825387 4.0515262 -5.75 5.9375 C-9.43138473 8.05245025 -12.77960667 10.20899244 -16 13 C-16.66 12.67 -17.32 12.34 -18 12 C-16.44233138 10.55726615 -14.87864043 9.12103292 -13.3125 7.6875 C-12.44238281 6.88699219 -11.57226562 6.08648437 -10.67578125 5.26171875 C-4.4507772 0 -4.4507772 0 0 0 Z " fill="#030303" transform="translate(368,178)"/>
<path d="M0 0 C0 3 0 3 -2.25 5.4375 C-3.1575 6.283125 -4.065 7.12875 -5 8 C-6.1446875 9.1446875 -6.1446875 9.1446875 -7.3125 10.3125 C-7.869375 10.869375 -8.42625 11.42625 -9 12 C-9.66 11.67 -10.32 11.34 -11 11 C-9.92173635 9.72486237 -8.83714481 8.45507431 -7.75 7.1875 C-7.14671875 6.47980469 -6.5434375 5.77210938 -5.921875 5.04296875 C-4.07629602 3.08110329 -2.20054668 1.54330375 0 0 Z " fill="#010101" transform="translate(321,213)"/>
<path d="M0 0 C0.66 0 1.32 0 2 0 C3.47265625 1.828125 3.47265625 1.828125 5.0625 4.25 C5.58972656 5.03890625 6.11695313 5.8278125 6.66015625 6.640625 C7.89430764 8.81388284 8.54673055 10.56017928 9 13 C6.13275314 12.42655063 5.1385485 12.1385485 3 10 C1.49089506 6.71547748 0.60983865 3.55739213 0 0 Z " fill="#474747" transform="translate(357,706)"/>
<path d="M0 0 C0 3.67955095 -0.73759596 4.138162 -3.1875 6.75 C-6.45042333 10.33125731 -9.25667258 14.00970557 -12 18 C-12.66 17.67 -13.32 17.34 -14 17 C-12.2614738 13.98045449 -10.40978526 11.05840043 -8.4375 8.1875 C-8.02371094 7.58292969 -7.60992187 6.97835937 -7.18359375 6.35546875 C-6.79300781 5.90816406 -6.40242188 5.46085938 -6 5 C-5.34 5 -4.68 5 -4 5 C-3.67 4.01 -3.34 3.02 -3 2 C-2.01 1.34 -1.02 0.68 0 0 Z " fill="#050504" transform="translate(299,238)"/>
<path d="M0 0 C0.66 0 1.32 0 2 0 C3.33257403 11.52164009 3.33257403 11.52164009 2 17 C1.34 17 0.68 17 0 17 C0 11.39 0 5.78 0 0 Z " fill="#5E5E5E" transform="translate(354,674)"/>
<path d="M0 0 C-0.0868748 1.95917659 -0.19504512 3.91741871 -0.3125 5.875 C-0.37050781 6.96554687 -0.42851562 8.05609375 -0.48828125 9.1796875 C-0.65714844 10.11039062 -0.82601562 11.04109375 -1 12 C-1.99 12.66 -2.98 13.32 -4 14 C-4.08114106 12.22992286 -4.13925505 10.45877902 -4.1875 8.6875 C-4.22230469 7.70136719 -4.25710937 6.71523438 -4.29296875 5.69921875 C-4 3 -4 3 -2.55078125 1.14453125 C-1 0 -1 0 0 0 Z " fill="#4D4D4C" transform="translate(239,379)"/>
<path d="M0 0 C0.66 0 1.32 0 2 0 C1.67 4.95 1.34 9.9 1 15 C0.34 15 -0.32 15 -1 15 C-1.22134176 12.87631556 -1.42670007 10.75095976 -1.625 8.625 C-1.74101563 7.44164062 -1.85703125 6.25828125 -1.9765625 5.0390625 C-1.98429688 4.03617188 -1.99203125 3.03328125 -2 2 C-1.34 1.34 -0.68 0.68 0 0 Z " fill="#727271" transform="translate(669,681)"/>
<path d="M0 0 C0 3.54957438 -0.48588719 3.88424715 -2.84375 6.35546875 C-3.72353516 7.28842773 -3.72353516 7.28842773 -4.62109375 8.24023438 C-5.24113281 8.88283203 -5.86117187 9.52542969 -6.5 10.1875 C-7.43005859 11.16879883 -7.43005859 11.16879883 -8.37890625 12.16992188 C-9.9127616 13.78636944 -11.45321411 15.39593746 -13 17 C-13.66 16.67 -14.32 16.34 -15 16 C-12.68778773 13.52056484 -10.37518185 11.04149716 -8.0625 8.5625 C-7.40314453 7.85544922 -6.74378906 7.14839844 -6.06445312 6.41992188 C-5.43603516 5.74638672 -4.80761719 5.07285156 -4.16015625 4.37890625 C-3.57886963 3.7557251 -2.99758301 3.13254395 -2.39868164 2.49047852 C-1.609971 1.65000401 -0.81500364 0.81500364 0 0 Z " fill="#050404" transform="translate(715,595)"/>
<path d="M0 0 C1.32 0 2.64 0 4 0 C4 0.66 4 1.32 4 2 C1.88002166 3.19733988 -0.24513676 4.38298713 -2.375 5.5625 C-2.97828125 5.90474609 -3.5815625 6.24699219 -4.203125 6.59960938 C-5.76978241 7.46127095 -7.38290862 8.23718183 -9 9 C-9.66 8.67 -10.32 8.34 -11 8 C-7.85214347 4.5823272 -5.41881673 2.47293891 -1 1 C-0.67 0.67 -0.34 0.34 0 0 Z " fill="#040404" transform="translate(394,162)"/>
<path d="M0 0 C0.66 0 1.32 0 2 0 C0.99016155 2.17503665 -0.02778981 4.03589517 -1.5 5.9375 C-3.11512605 7.97480313 -3.11512605 7.97480313 -4 10.5625 C-5.01257108 13.03064201 -6.00366422 14.27589183 -8 16 C-8.66 15.67 -9.32 15.34 -10 15 C-6.66666667 10 -3.33333333 5 0 0 Z " fill="#D0D0D0" transform="translate(697,618)"/>
<path d="M0 0 C0.66 0 1.32 0 2 0 C2.83536335 5.29063457 3.19156496 9.69211971 2 15 C1.01 15.495 1.01 15.495 0 16 C0 10.72 0 5.44 0 0 Z " fill="#383837" transform="translate(238,361)"/>
<path d="M0 0 C0.66 0 1.32 0 2 0 C1.125 5.875 1.125 5.875 0 7 C-0.23192865 8.51469448 -0.41215238 10.03754562 -0.5625 11.5625 C-0.64628906 12.38878906 -0.73007812 13.21507812 -0.81640625 14.06640625 C-0.87699219 14.70449219 -0.93757812 15.34257812 -1 16 C-1.66 16 -2.32 16 -3 16 C-4.92932559 9.89046896 -2.54092546 5.51806129 0 0 Z " fill="#5F5F5E" transform="translate(784,466)"/>
<path d="M0 0 C4.03721561 1.56583596 6.47070582 4.44173865 9.25 7.625 C9.70890625 8.140625 10.1678125 8.65625 10.640625 9.1875 C11.76592296 10.4534602 12.88372177 11.72607942 14 13 C11 13 11 13 8.30078125 10.6640625 C7.29685338 9.65880492 6.3010225 8.64541032 5.3125 7.625 C4.80138672 7.11710938 4.29027344 6.60921875 3.76367188 6.0859375 C0 2.26699141 0 2.26699141 0 0 Z " fill="#C9C9C9" transform="translate(293,580)"/>
<path d="M0 0 C3.3 1.65 6.6 3.3 10 5 C10 5.99 10 6.98 10 8 C9.01 7.34 8.02 6.68 7 6 C6.01 6.495 6.01 6.495 5 7 C3.02 5.35 1.04 3.7 -1 2 C-0.67 1.34 -0.34 0.68 0 0 Z " fill="#4F4F4E" transform="translate(665,182)"/>
<path d="M0 0 C0.66 0 1.32 0 2 0 C1.71125 0.556875 1.4225 1.11375 1.125 1.6875 C-0.06620729 4.00808578 -0.06620729 4.00808578 -0.875 6.625 C-2.18909471 9.39919994 -3.17369103 9.96368671 -6 11 C-4.52307692 4.35384615 -4.52307692 4.35384615 -1.875 2.5625 C-0.946875 2.2840625 -0.946875 2.2840625 0 2 C0 1.34 0 0.68 0 0 Z " fill="#959696" transform="translate(665,708)"/>
<path d="M0 0 C0.66 0 1.32 0 2 0 C2 2.97 2 5.94 2 9 C0.68 8.34 -0.64 7.68 -2 7 C-2.125 4.625 -2.125 4.625 -2 2 C-1.34 1.34 -0.68 0.68 0 0 Z " fill="#4E4E4D" transform="translate(372,767)"/>
<path d="M0 0 C0.33 0.99 0.66 1.98 1 3 C-1.97 6.3 -4.94 9.6 -8 13 C-8.33 12.01 -8.66 11.02 -9 10 C-6.03 6.7 -3.06 3.4 0 0 Z " fill="#DEDEDD" transform="translate(712,600)"/>
<path d="M0 0 C0.99 0.33 1.98 0.66 3 1 C3.22331199 2.58129029 3.42804644 4.16521089 3.625 5.75 C3.74101563 6.63171875 3.85703125 7.5134375 3.9765625 8.421875 C4.00207817 11.22859878 3.44843844 12.63384866 2 15 C1.66048381 13.43883181 1.32867456 11.87598662 1 10.3125 C0.814375 9.44238281 0.62875 8.57226562 0.4375 7.67578125 C0.01027953 5.06287036 -0.07616201 2.64186962 0 0 Z " fill="#060505" transform="translate(783,363)"/>
<path d="M0 0 C3.96 0 7.92 0 12 0 C11.67 0.66 11.34 1.32 11 2 C8.27734375 2.4140625 8.27734375 2.4140625 4.9375 2.625 C3.83277344 2.69976562 2.72804688 2.77453125 1.58984375 2.8515625 C0.73519531 2.90054688 -0.11945313 2.94953125 -1 3 C-0.67 2.01 -0.34 1.02 0 0 Z " fill="#020202" transform="translate(470,139)"/>
<path d="M0 0 C0 0.66 0 1.32 0 2 C-1.66666667 3.66666667 -3.33333333 5.33333333 -5 7 C-5.33 7.99 -5.66 8.98 -6 10 C-6.66 10 -7.32 10 -8 10 C-8.3125 7.8125 -8.3125 7.8125 -8 5 C-3.88888889 0 -3.88888889 0 0 0 Z " fill="#000100" transform="translate(416,818)"/>
<path d="M0 0 C4.12666074 1.48918627 5.2973363 3.80843004 7.25 7.625 C7.77078125 8.62789062 8.2915625 9.63078125 8.828125 10.6640625 C9.21484375 11.43492187 9.6015625 12.20578125 10 13 C5.57367378 11.12946047 4.08980653 8.15187226 2 4 C1.5875 3.195625 1.175 2.39125 0.75 1.5625 C0.5025 1.046875 0.255 0.53125 0 0 Z " fill="#DDDDDC" transform="translate(328,621)"/>
<path d="M0 0 C3.44428265 1.44781793 5.36130962 3.27694609 7.75 6.125 C8.36359375 6.84945312 8.9771875 7.57390625 9.609375 8.3203125 C10.29773438 9.15175781 10.29773438 9.15175781 11 10 C8 10 8 10 5.95703125 8.3203125 C5.24933594 7.59585938 4.54164063 6.87140625 3.8125 6.125 C2.73935547 5.04605469 2.73935547 5.04605469 1.64453125 3.9453125 C0 2 0 2 0 0 Z " fill="#E5E5E5" transform="translate(315,605)"/>
<path d="M0 0 C0.66 0.33 1.32 0.66 2 1 C1.54625 1.721875 1.0925 2.44375 0.625 3.1875 C-1.06756718 5.90687362 -1.06756718 5.90687362 -1.9375 8.75 C-3 11 -3 11 -5.125 11.8125 C-5.74375 11.874375 -6.3625 11.93625 -7 12 C-6.71125 11.443125 -6.4225 10.88625 -6.125 10.3125 C-4.94831521 7.99356912 -4.94831521 7.99356912 -4.0625 5.4375 C-3.00295035 3.00676845 -1.98606905 1.71524145 0 0 Z " fill="#626161" transform="translate(287,250)"/>
<path d="M0 0 C2 1.375 2 1.375 4 3 C4 3.66 4 4.32 4 5 C4.66 5 5.32 5 6 5 C8.29648649 7.5614657 9 8.47967572 9 12 C8.34 12 7.68 12 7 12 C5.2734375 9.8828125 5.2734375 9.8828125 3.375 7.125 C2.74335937 6.22007812 2.11171875 5.31515625 1.4609375 4.3828125 C0 2 0 2 0 0 Z " fill="#030303" transform="translate(735,251)"/>
<path d="M0 0 C2.3125 -0.1875 2.3125 -0.1875 5 0 C6.5 1.375 6.5 1.375 8 3 C9.66392045 3.67349161 11.33032028 4.3409159 13 5 C13.33 5.66 13.66 6.32 14 7 C4.22210581 3.99633316 4.22210581 3.99633316 0 1 C0 0.67 0 0.34 0 0 Z " fill="#050505" transform="translate(618,158)"/>
<path d="M0 0 C4.05281712 1.22527029 7.44360764 2.69880494 11 5 C10.67 5.99 10.34 6.98 10 8 C9.34 7.34 8.68 6.68 8 6 C6.515 5.566875 6.515 5.566875 5 5.125 C2 4 2 4 0.625 1.875 C0.41875 1.25625 0.2125 0.6375 0 0 Z " fill="#646463" transform="translate(426,864)"/>
<path d="M0 0 C2.36810318 0.94724127 3.75207953 1.65291134 5.25 3.75 C6.19251213 6.57753638 6.1345485 9.03993304 6 12 C5.01 11.67 4.02 11.34 3 11 C2.87625 9.9275 2.7525 8.855 2.625 7.75 C2.10356064 4.62136385 1.59911746 2.66519576 0 0 Z " fill="#414040" transform="translate(344,647)"/>
<path d="M0 0 C0.66 0.33 1.32 0.66 2 1 C1.54109375 1.38671875 1.0821875 1.7734375 0.609375 2.171875 C-2.725081 5.00195951 -5.96501303 7.84361355 -9 11 C-9 8 -9 8 -7.03125 5.95703125 C-6.1959375 5.24933594 -5.360625 4.54164063 -4.5 3.8125 C-3.6646875 3.09707031 -2.829375 2.38164063 -1.96875 1.64453125 C-1.3190625 1.10183594 -0.669375 0.55914063 0 0 Z " fill="#141414" transform="translate(725,585)"/>
<path d="M0 0 C1.98 0.99 1.98 0.99 4 2 C3.67 3.65 3.34 5.3 3 7 C2.01 7.33 1.02 7.66 0 8 C0 5.36 0 2.72 0 0 Z " fill="#555555" transform="translate(615,829)"/>
<path d="M0 0 C0.33 0.66 0.66 1.32 1 2 C-0.93694542 5.80471422 -2.70921407 9.20283196 -6 12 C-6.66 11.67 -7.32 11.34 -8 11 C-5.36 7.37 -2.72 3.74 0 0 Z " fill="#050404" transform="translate(748,552)"/>
<path d="M0 0 C0.66 0 1.32 0 2 0 C2.19573608 1.43640171 2.38127816 2.87419504 2.5625 4.3125 C2.66691406 5.11300781 2.77132812 5.91351563 2.87890625 6.73828125 C3 9 3 9 2 12 C1.34 12 0.68 12 0 12 C0 8.04 0 4.08 0 0 Z " fill="#1D1D1C" transform="translate(238,450)"/>
<path d="M0 0 C0.66 0.33 1.32 0.66 2 1 C1.125 6.75 1.125 6.75 0 9 C-2.0625 9.625 -2.0625 9.625 -4 10 C-3.52449439 8.51965236 -3.04448784 7.04074979 -2.5625 5.5625 C-2.29566406 4.73878906 -2.02882813 3.91507812 -1.75390625 3.06640625 C-1 1 -1 1 0 0 Z " fill="#2E2D2D" transform="translate(262,291)"/>
<path d="M0 0 C2.97 0 5.94 0 9 0 C9.66 1.32 10.32 2.64 11 4 C7.37 3.34 3.74 2.68 0 2 C0 1.34 0 0.68 0 0 Z " fill="#131313" transform="translate(565,142)"/>
<path d="M0 0 C1.15941038 3.47823115 0.70820884 5.45895578 0 9 C-0.66 9 -1.32 9 -2 9 C-2 10.32 -2 11.64 -2 13 C-2.66 13 -3.32 13 -4 13 C-3.52511102 11.01980257 -3.04497141 9.04086365 -2.5625 7.0625 C-2.29566406 5.96035156 -2.02882813 4.85820313 -1.75390625 3.72265625 C-1 1 -1 1 0 0 Z " fill="#040404" transform="translate(674,658)"/>
<path d="M0 0 C0.66 0 1.32 0 2 0 C2.53190541 1.43344 3.05015258 2.87195367 3.5625 4.3125 C3.85253906 5.11300781 4.14257812 5.91351562 4.44140625 6.73828125 C5 9 5 9 4 12 C3.67 10.68 3.34 9.36 3 8 C2.34 8 1.68 8 1 8 C0.67 5.36 0.34 2.72 0 0 Z " fill="#060505" transform="translate(349,656)"/>
<path d="M0 0 C0.66 0 1.32 0 2 0 C2 0.66 2 1.32 2 2 C0.68 2.33 -0.64 2.66 -2 3 C-1.34 2.01 -0.68 1.02 0 0 Z M-9 3 C-6.69 3 -4.38 3 -2 3 C-2 3.66 -2 4.32 -2 5 C-4.64 5.33 -7.28 5.66 -10 6 C-9.67 5.01 -9.34 4.02 -9 3 Z " fill="#5D5D5D" transform="translate(417,152)"/>
<path d="M0 0 C2.31 0 4.62 0 7 0 C7 0.66 7 1.32 7 2 C2.71 2.66 -1.58 3.32 -6 4 C-5.67 3.34 -5.34 2.68 -5 2 C-3.35 2 -1.7 2 0 2 C0 1.34 0 0.68 0 0 Z " fill="#010100" transform="translate(455,142)"/>
<path d="M0 0 C0.66 0.33 1.32 0.66 2 1 C0.90653119 2.34212062 -0.2001575 3.67347975 -1.3125 5 C-2.23482422 6.11375 -2.23482422 6.11375 -3.17578125 7.25 C-5 9 -5 9 -8 9 C-5.36 6.03 -2.72 3.06 0 0 Z " fill="#DEDEDE" transform="translate(734,575)"/>
<path d="M0 0 C0.66 0 1.32 0 2 0 C4.6875 2.8125 4.6875 2.8125 7 6 C6.67 6.99 6.34 7.98 6 9 C2.81227007 6.87484671 1.75079247 5.33484279 0 2 C0 1.34 0 0.68 0 0 Z " fill="#363634" transform="translate(408,844)"/>
<path d="M0 0 C3.79588866 0.54226981 5.47211993 2.20127563 8 5 C7.67 5.99 7.34 6.98 7 8 C5.8274869 7.04882866 4.66212985 6.08882991 3.5 5.125 C2.8503125 4.59132813 2.200625 4.05765625 1.53125 3.5078125 C1.0259375 3.01023437 0.520625 2.51265625 0 2 C0 1.34 0 0.68 0 0 Z " fill="#000000" transform="translate(608,818)"/>
<path d="M0 0 C0.66 0 1.32 0 2 0 C1.71125 0.556875 1.4225 1.11375 1.125 1.6875 C-0.05960441 4.02806407 -0.05960441 4.02806407 -1 6.6875 C-2 9 -2 9 -4 10 C-3.67 7.69 -3.34 5.38 -3 3 C-2.01 2.67 -1.02 2.34 0 2 C0 1.34 0 0.68 0 0 Z " fill="#535453" transform="translate(681,644)"/>
<path d="M0 0 C3.21043882 1.38188453 5.04936365 2.92421903 7.25 5.625 C8.03117187 6.57246094 8.03117187 6.57246094 8.828125 7.5390625 C9.40820312 8.26222656 9.40820312 8.26222656 10 9 C9.67 9.66 9.34 10.32 9 11 C7.49703315 9.35687553 5.99769719 7.71042916 4.5 6.0625 C3.6646875 5.14597656 2.829375 4.22945312 1.96875 3.28515625 C0 1 0 1 0 0 Z " fill="#020202" transform="translate(319,607)"/>
<path d="M0 0 C0.66 0 1.32 0 2 0 C3.98 3.63 5.96 7.26 8 11 C2.75732231 8.37866116 1.79871624 5.39614871 0 0 Z " fill="#C9C8C8" transform="translate(267,541)"/>
<path d="M0 0 C0 0.99 0 1.98 0 3 C-1.11375 3.474375 -2.2275 3.94875 -3.375 4.4375 C-5.26710994 5.25306463 -7.15712709 6.07856355 -9 7 C-7.63016497 3.83884224 -7.0109362 3.0072908 -4 1 C-1.8125 0.375 -1.8125 0.375 0 0 Z " fill="#6F6F6E" transform="translate(596,865)"/>
<path d="M0 0 C0.66 0.33 1.32 0.66 2 1 C0.88266271 2.50571657 -0.24410035 4.00444292 -1.375 5.5 C-2.00148438 6.3353125 -2.62796875 7.170625 -3.2734375 8.03125 C-3.84320313 8.6809375 -4.41296875 9.330625 -5 10 C-5.66 10 -6.32 10 -7 10 C-5.33248852 6.05860922 -2.77289351 3.2107188 0 0 Z " fill="#D0D1D0" transform="translate(300,233)"/>
<path d="M0 0 C0.66 0 1.32 0 2 0 C1.71125 0.556875 1.4225 1.11375 1.125 1.6875 C-0.0413253 4.08494645 -1.0339881 6.51596939 -2 9 C-2.66 7.68 -3.32 6.36 -4 5 C-3.34 4.01 -2.68 3.02 -2 2 C-1.34 2 -0.68 2 0 2 C0 1.34 0 0.68 0 0 Z " fill="#535453" transform="translate(771,510)"/>
<path d="M0 0 C0.99 0 1.98 0 3 0 C3.33 2.31 3.66 4.62 4 7 C3.01 7 2.02 7 1 7 C0.67 4.69 0.34 2.38 0 0 Z " fill="#515251" transform="translate(253,509)"/>
<path d="M0 0 C0.66 0 1.32 0 2 0 C2 2.64 2 5.28 2 8 C1.01 8.33 0.02 8.66 -1 9 C-0.67 6.03 -0.34 3.06 0 0 Z " fill="#E3E4E2" transform="translate(787,449)"/>
<path d="M0 0 C0.33 0.99 0.66 1.98 1 3 C-1.64 4.98 -4.28 6.96 -7 9 C-5.04783565 5.09567131 -3.12613393 2.96160056 0 0 Z " fill="#D9DAD9" transform="translate(609,854)"/>
<path d="M0 0 C1.98 0.99 1.98 0.99 4 2 C3.67 2.66 3.34 3.32 3 4 C3.99 4.66 4.98 5.32 6 6 C5.67 6.66 5.34 7.32 5 8 C2.5 6.25 2.5 6.25 0 4 C0 2.68 0 1.36 0 0 Z " fill="#484848" transform="translate(376,786)"/>
<path d="M0 0 C1.74627478 2.61941217 2.38722388 4.03824877 3 7 C2.01 7 1.02 7 0 7 C-1 6 -1 6 -1.125 3.5 C-1 1 -1 1 0 0 Z " fill="#191818" transform="translate(374,779)"/>
<path d="M0 0 C0.99 0 1.98 0 3 0 C1.95125002 2.62187494 1.35068687 3.79371361 -1.125 5.25 C-1.74375 5.4975 -2.3625 5.745 -3 6 C-2.42655063 3.13275314 -2.1385485 2.1385485 0 0 Z " fill="#333333" transform="translate(379,750)"/>
<path d="M0 0 C3.11198065 1.49836105 6.0534615 3.19933758 9 5 C8.67 5.66 8.34 6.32 8 7 C2.33846154 4.53846154 2.33846154 4.53846154 0.625 1.8125 C0.41875 1.214375 0.2125 0.61625 0 0 Z " fill="#4F4F50" transform="translate(638,747)"/>
<path d="M0 0 C0.33 0.66 0.66 1.32 1 2 C0.00390625 3.9453125 0.00390625 3.9453125 -1.4375 6.125 C-1.91058594 6.84945312 -2.38367188 7.57390625 -2.87109375 8.3203125 C-3.24363281 8.87460937 -3.61617187 9.42890625 -4 10 C-4.66 9.34 -5.32 8.68 -6 8 C-4.768606 4.30581799 -2.79208646 2.64890254 0 0 Z " fill="#040404" transform="translate(694,620)"/>
<path d="M0 0 C1.9375 0.375 1.9375 0.375 4 1 C4.33 1.66 4.66 2.32 5 3 C4.0625 5.125 4.0625 5.125 3 7 C0.64046906 4.64046906 0.50858587 3.22104383 0 0 Z " fill="#757574" transform="translate(282,564)"/>
<path d="M0 0 C0.66 0.33 1.32 0.66 2 1 C0.16172132 4.15133488 -1.75972706 7.11964908 -4 10 C-4.66 9.67 -5.32 9.34 -6 9 C-4.02 6.03 -2.04 3.06 0 0 Z " fill="#AFAFAF" transform="translate(750,551)"/>
<path d="M0 0 C2.475 0.99 2.475 0.99 5 2 C5 2.66 5 3.32 5 4 C5.66 4 6.32 4 7 4 C7 4.66 7 5.32 7 6 C6.401875 5.690625 5.80375 5.38125 5.1875 5.0625 C2.91043228 3.89790296 2.91043228 3.89790296 0 3 C0 2.01 0 1.02 0 0 Z " fill="#333232" transform="translate(437,869)"/>
<path d="M0 0 C0.66 0 1.32 0 2 0 C0.71480435 2.86697492 -0.57129254 4.97607712 -3 7 C-3.66 7 -4.32 7 -5 7 C-4.34 5.68 -3.68 4.36 -3 3 C-2.34 3 -1.68 3 -1 3 C-0.67 2.01 -0.34 1.02 0 0 Z " fill="#D8D8D8" transform="translate(646,788)"/>
<path d="M0 0 C2.04119788 1.61594832 4.04072937 3.2856382 6 5 C6 5.66 6 6.32 6 7 C2.63279613 5.60667426 1.0140476 4.0210714 -1 1 C-0.67 0.67 -0.34 0.34 0 0 Z " fill="#010101" transform="translate(311,597)"/>
<path d="M0 0 C0 3.99904969 -1.72586967 5.80200422 -4 9 C-4.66 8.34 -5.32 7.68 -6 7 C-4.02 4.69 -2.04 2.38 0 0 Z " fill="#060606" transform="translate(737,568)"/>
<path d="M0 0 C0 3 0 3 -2.375 5.625 C-5 8 -5 8 -7 9 C-5.44499019 5.18315774 -2.96404505 2.80804268 0 0 Z " fill="#161515" transform="translate(281,262)"/>
<path d="M0 0 C1.65 0 3.3 0 5 0 C5 0.66 5 1.32 5 2 C2.03 2.66 -0.94 3.32 -4 4 C-2.68 3.34 -1.36 2.68 0 2 C0 1.34 0 0.68 0 0 Z " fill="#040503" transform="translate(419,152)"/>
<path d="M0 0 C0.66 0.33 1.32 0.66 2 1 C1.525625 1.598125 1.05125 2.19625 0.5625 2.8125 C-1.16465744 5.00382924 -1.16465744 5.00382924 -2 8 C-2.66 8 -3.32 8 -4 8 C-3.50168276 4.31245243 -2.89932357 2.39509338 0 0 Z " fill="#010101" transform="translate(377,755)"/>
<path d="M0 0 C0.33 0.99 0.66 1.98 1 3 C-0.375 4.5 -0.375 4.5 -2 6 C-2.66 6 -3.32 6 -4 6 C-3.6875 4.125 -3.6875 4.125 -3 2 C-2.01 1.34 -1.02 0.68 0 0 Z " fill="#3E3D3E" transform="translate(658,716)"/>
<path d="M0 0 C0.66 0 1.32 0 2 0 C2 2.64 2 5.28 2 8 C1.01 7.67 0.02 7.34 -1 7 C-0.67 4.69 -0.34 2.38 0 0 Z " fill="#050505" transform="translate(356,685)"/>
<path d="M0 0 C0.66 0.33 1.32 0.66 2 1 C0.79618552 3.49361571 -0.45428722 5.68143083 -2 8 C-2.66 7.67 -3.32 7.34 -4 7 C-2.68 4.69 -1.36 2.38 0 0 Z " fill="#EEEEEE" transform="translate(755,543)"/>
<path d="M0 0 C0.66 0 1.32 0 2 0 C4.125 4.625 4.125 4.625 3 8 C3 7.34 3 6.68 3 6 C2.34 6 1.68 6 1 6 C0.34 4.35 -0.32 2.7 -1 1 C-0.67 0.67 -0.34 0.34 0 0 Z " fill="#060606" transform="translate(257,516)"/>
<path d="M0 0 C0.99 0.33 1.98 0.66 3 1 C3 3.31 3 5.62 3 8 C2.34 8 1.68 8 1 8 C0.67 5.36 0.34 2.72 0 0 Z " fill="#030303" transform="translate(780,349)"/>
<path d="M0 0 C0.98120464 3.05263664 0.98120464 4.94736336 0 8 C-0.66 8 -1.32 8 -2 8 C-2.125 5.125 -2.125 5.125 -2 2 C-1.34 1.34 -0.68 0.68 0 0 Z " fill="#010101" transform="translate(244,346)"/>
<path d="M0 0 C0.33 0.99 0.66 1.98 1 3 C-0.375 4.5 -0.375 4.5 -2 6 C-2.66 6 -3.32 6 -4 6 C-3.6875 4.125 -3.6875 4.125 -3 2 C-2.01 1.34 -1.02 0.68 0 0 Z " fill="#6B6B6B" transform="translate(255,311)"/>
</svg>
